<mxfile host="Electron" modified="2023-12-08T16:12:14.526Z" agent="Mozilla/5.0 (Macintosh; Intel Mac OS X 10_15_7) AppleWebKit/537.36 (KHTML, like Gecko) draw.io/22.1.2 Chrome/114.0.5735.289 Electron/25.9.4 Safari/537.36" etag="6ygbiW47gj1Uey1WgeJJ" version="22.1.2" type="device">
  <diagram id="C5RBs43oDa-KdzZeNtuy" name="Page-1">
    <mxGraphModel dx="5371" dy="2304" grid="1" gridSize="10" guides="1" tooltips="1" connect="1" arrows="1" fold="1" page="1" pageScale="1" pageWidth="827" pageHeight="1169" math="0" shadow="0">
      <root>
        <mxCell id="WIyWlLk6GJQsqaUBKTNV-0" />
        <mxCell id="WIyWlLk6GJQsqaUBKTNV-1" parent="WIyWlLk6GJQsqaUBKTNV-0" />
        <mxCell id="GNeBYBOIqmBqG0EEJqLA-0" value="ch.hslu.swda.g06.order.model" style="rounded=0;whiteSpace=wrap;html=1;align=left;verticalAlign=top;" vertex="1" parent="WIyWlLk6GJQsqaUBKTNV-1">
          <mxGeometry y="30" width="1800" height="1010" as="geometry" />
        </mxCell>
        <mxCell id="zkfFHV4jXpPFQw0GAbJ--0" value="BaseDBObject" style="swimlane;fontStyle=0;align=center;verticalAlign=top;childLayout=stackLayout;horizontal=1;startSize=26;horizontalStack=0;resizeParent=1;resizeLast=0;collapsible=1;marginBottom=0;rounded=0;shadow=0;strokeWidth=1;" parent="WIyWlLk6GJQsqaUBKTNV-1" vertex="1">
          <mxGeometry x="242.5" y="70" width="190" height="164" as="geometry">
            <mxRectangle x="230" y="140" width="160" height="26" as="alternateBounds" />
          </mxGeometry>
        </mxCell>
        <mxCell id="zkfFHV4jXpPFQw0GAbJ--1" value="- eTag: long" style="text;align=left;verticalAlign=top;spacingLeft=4;spacingRight=4;overflow=hidden;rotatable=0;points=[[0,0.5],[1,0.5]];portConstraint=eastwest;" parent="zkfFHV4jXpPFQw0GAbJ--0" vertex="1">
          <mxGeometry y="26" width="190" height="26" as="geometry" />
        </mxCell>
        <mxCell id="zkfFHV4jXpPFQw0GAbJ--4" value="" style="line;html=1;strokeWidth=1;align=left;verticalAlign=middle;spacingTop=-1;spacingLeft=3;spacingRight=3;rotatable=0;labelPosition=right;points=[];portConstraint=eastwest;" parent="zkfFHV4jXpPFQw0GAbJ--0" vertex="1">
          <mxGeometry y="52" width="190" height="8" as="geometry" />
        </mxCell>
        <mxCell id="GNeBYBOIqmBqG0EEJqLA-14" value="+ BaseDBObject()" style="text;align=left;verticalAlign=top;spacingLeft=4;spacingRight=4;overflow=hidden;rotatable=0;points=[[0,0.5],[1,0.5]];portConstraint=eastwest;" vertex="1" parent="zkfFHV4jXpPFQw0GAbJ--0">
          <mxGeometry y="60" width="190" height="26" as="geometry" />
        </mxCell>
        <mxCell id="zkfFHV4jXpPFQw0GAbJ--5" value="+ getEtag(): long" style="text;align=left;verticalAlign=top;spacingLeft=4;spacingRight=4;overflow=hidden;rotatable=0;points=[[0,0.5],[1,0.5]];portConstraint=eastwest;" parent="zkfFHV4jXpPFQw0GAbJ--0" vertex="1">
          <mxGeometry y="86" width="190" height="26" as="geometry" />
        </mxCell>
        <mxCell id="GNeBYBOIqmBqG0EEJqLA-1" value="+ setCurrentEtag(): void" style="text;align=left;verticalAlign=top;spacingLeft=4;spacingRight=4;overflow=hidden;rotatable=0;points=[[0,0.5],[1,0.5]];portConstraint=eastwest;" vertex="1" parent="zkfFHV4jXpPFQw0GAbJ--0">
          <mxGeometry y="112" width="190" height="26" as="geometry" />
        </mxCell>
        <mxCell id="GNeBYBOIqmBqG0EEJqLA-2" value="+ canEdit(eTag: long): boolean" style="text;align=left;verticalAlign=top;spacingLeft=4;spacingRight=4;overflow=hidden;rotatable=0;points=[[0,0.5],[1,0.5]];portConstraint=eastwest;" vertex="1" parent="zkfFHV4jXpPFQw0GAbJ--0">
          <mxGeometry y="138" width="190" height="26" as="geometry" />
        </mxCell>
        <mxCell id="zkfFHV4jXpPFQw0GAbJ--13" value="Order" style="swimlane;fontStyle=0;align=center;verticalAlign=top;childLayout=stackLayout;horizontal=1;startSize=26;horizontalStack=0;resizeParent=1;resizeLast=0;collapsible=1;marginBottom=0;rounded=0;shadow=0;strokeWidth=1;" parent="WIyWlLk6GJQsqaUBKTNV-1" vertex="1">
          <mxGeometry x="75" y="280" width="525" height="658" as="geometry">
            <mxRectangle x="340" y="380" width="170" height="26" as="alternateBounds" />
          </mxGeometry>
        </mxCell>
        <mxCell id="zkfFHV4jXpPFQw0GAbJ--14" value="- orderId: string" style="text;align=left;verticalAlign=top;spacingLeft=4;spacingRight=4;overflow=hidden;rotatable=0;points=[[0,0.5],[1,0.5]];portConstraint=eastwest;" parent="zkfFHV4jXpPFQw0GAbJ--13" vertex="1">
          <mxGeometry y="26" width="525" height="26" as="geometry" />
        </mxCell>
        <mxCell id="GNeBYBOIqmBqG0EEJqLA-4" value="- customerId: VerifyableProperty&lt;string&gt;" style="text;align=left;verticalAlign=top;spacingLeft=4;spacingRight=4;overflow=hidden;rotatable=0;points=[[0,0.5],[1,0.5]];portConstraint=eastwest;" vertex="1" parent="zkfFHV4jXpPFQw0GAbJ--13">
          <mxGeometry y="52" width="525" height="26" as="geometry" />
        </mxCell>
        <mxCell id="GNeBYBOIqmBqG0EEJqLA-3" value="- employeeId: string" style="text;align=left;verticalAlign=top;spacingLeft=4;spacingRight=4;overflow=hidden;rotatable=0;points=[[0,0.5],[1,0.5]];portConstraint=eastwest;" vertex="1" parent="zkfFHV4jXpPFQw0GAbJ--13">
          <mxGeometry y="78" width="525" height="26" as="geometry" />
        </mxCell>
        <mxCell id="GNeBYBOIqmBqG0EEJqLA-5" value="- isoDateString: string" style="text;align=left;verticalAlign=top;spacingLeft=4;spacingRight=4;overflow=hidden;rotatable=0;points=[[0,0.5],[1,0.5]];portConstraint=eastwest;" vertex="1" parent="zkfFHV4jXpPFQw0GAbJ--13">
          <mxGeometry y="104" width="525" height="26" as="geometry" />
        </mxCell>
        <mxCell id="GNeBYBOIqmBqG0EEJqLA-6" value="- state: OrderState" style="text;align=left;verticalAlign=top;spacingLeft=4;spacingRight=4;overflow=hidden;rotatable=0;points=[[0,0.5],[1,0.5]];portConstraint=eastwest;" vertex="1" parent="zkfFHV4jXpPFQw0GAbJ--13">
          <mxGeometry y="130" width="525" height="26" as="geometry" />
        </mxCell>
        <mxCell id="GNeBYBOIqmBqG0EEJqLA-7" value="- articles: List&lt;VerifyableProperty&lt;OrderArticle&gt;&gt;" style="text;align=left;verticalAlign=top;spacingLeft=4;spacingRight=4;overflow=hidden;rotatable=0;points=[[0,0.5],[1,0.5]];portConstraint=eastwest;" vertex="1" parent="zkfFHV4jXpPFQw0GAbJ--13">
          <mxGeometry y="156" width="525" height="26" as="geometry" />
        </mxCell>
        <mxCell id="GNeBYBOIqmBqG0EEJqLA-8" value="- filialId: string" style="text;align=left;verticalAlign=top;spacingLeft=4;spacingRight=4;overflow=hidden;rotatable=0;points=[[0,0.5],[1,0.5]];portConstraint=eastwest;" vertex="1" parent="zkfFHV4jXpPFQw0GAbJ--13">
          <mxGeometry y="182" width="525" height="26" as="geometry" />
        </mxCell>
        <mxCell id="GNeBYBOIqmBqG0EEJqLA-9" value="- totalPrice: float" style="text;align=left;verticalAlign=top;spacingLeft=4;spacingRight=4;overflow=hidden;rotatable=0;points=[[0,0.5],[1,0.5]];portConstraint=eastwest;" vertex="1" parent="zkfFHV4jXpPFQw0GAbJ--13">
          <mxGeometry y="208" width="525" height="26" as="geometry" />
        </mxCell>
        <mxCell id="zkfFHV4jXpPFQw0GAbJ--15" value="" style="line;html=1;strokeWidth=1;align=left;verticalAlign=middle;spacingTop=-1;spacingLeft=3;spacingRight=3;rotatable=0;labelPosition=right;points=[];portConstraint=eastwest;" parent="zkfFHV4jXpPFQw0GAbJ--13" vertex="1">
          <mxGeometry y="234" width="525" height="8" as="geometry" />
        </mxCell>
        <mxCell id="GNeBYBOIqmBqG0EEJqLA-10" value="+ Order(customerId: string, employeeId: string, filialId: string, articles: List&lt;OrderArticles&gt;" style="text;align=left;verticalAlign=top;spacingLeft=4;spacingRight=4;overflow=hidden;rotatable=0;points=[[0,0.5],[1,0.5]];portConstraint=eastwest;" vertex="1" parent="zkfFHV4jXpPFQw0GAbJ--13">
          <mxGeometry y="242" width="525" height="26" as="geometry" />
        </mxCell>
        <mxCell id="GNeBYBOIqmBqG0EEJqLA-11" value="+ Order(orderDto: CreateOrderDto)" style="text;align=left;verticalAlign=top;spacingLeft=4;spacingRight=4;overflow=hidden;rotatable=0;points=[[0,0.5],[1,0.5]];portConstraint=eastwest;" vertex="1" parent="zkfFHV4jXpPFQw0GAbJ--13">
          <mxGeometry y="268" width="525" height="26" as="geometry" />
        </mxCell>
        <mxCell id="GNeBYBOIqmBqG0EEJqLA-12" value="+ Order()" style="text;align=left;verticalAlign=top;spacingLeft=4;spacingRight=4;overflow=hidden;rotatable=0;points=[[0,0.5],[1,0.5]];portConstraint=eastwest;" vertex="1" parent="zkfFHV4jXpPFQw0GAbJ--13">
          <mxGeometry y="294" width="525" height="26" as="geometry" />
        </mxCell>
        <mxCell id="GNeBYBOIqmBqG0EEJqLA-13" value="+ getOrderId(): string" style="text;align=left;verticalAlign=top;spacingLeft=4;spacingRight=4;overflow=hidden;rotatable=0;points=[[0,0.5],[1,0.5]];portConstraint=eastwest;" vertex="1" parent="zkfFHV4jXpPFQw0GAbJ--13">
          <mxGeometry y="320" width="525" height="26" as="geometry" />
        </mxCell>
        <mxCell id="GNeBYBOIqmBqG0EEJqLA-15" value="+ getTotalPrice(): float" style="text;align=left;verticalAlign=top;spacingLeft=4;spacingRight=4;overflow=hidden;rotatable=0;points=[[0,0.5],[1,0.5]];portConstraint=eastwest;" vertex="1" parent="zkfFHV4jXpPFQw0GAbJ--13">
          <mxGeometry y="346" width="525" height="26" as="geometry" />
        </mxCell>
        <mxCell id="GNeBYBOIqmBqG0EEJqLA-16" value="+ setOrderId(id: string): void" style="text;align=left;verticalAlign=top;spacingLeft=4;spacingRight=4;overflow=hidden;rotatable=0;points=[[0,0.5],[1,0.5]];portConstraint=eastwest;" vertex="1" parent="zkfFHV4jXpPFQw0GAbJ--13">
          <mxGeometry y="372" width="525" height="26" as="geometry" />
        </mxCell>
        <mxCell id="GNeBYBOIqmBqG0EEJqLA-17" value="+ getCustomerId(): string" style="text;align=left;verticalAlign=top;spacingLeft=4;spacingRight=4;overflow=hidden;rotatable=0;points=[[0,0.5],[1,0.5]];portConstraint=eastwest;" vertex="1" parent="zkfFHV4jXpPFQw0GAbJ--13">
          <mxGeometry y="398" width="525" height="26" as="geometry" />
        </mxCell>
        <mxCell id="GNeBYBOIqmBqG0EEJqLA-18" value="+ getEmployeeId(): string" style="text;align=left;verticalAlign=top;spacingLeft=4;spacingRight=4;overflow=hidden;rotatable=0;points=[[0,0.5],[1,0.5]];portConstraint=eastwest;" vertex="1" parent="zkfFHV4jXpPFQw0GAbJ--13">
          <mxGeometry y="424" width="525" height="26" as="geometry" />
        </mxCell>
        <mxCell id="GNeBYBOIqmBqG0EEJqLA-19" value="+ getIsoDateString(): string" style="text;align=left;verticalAlign=top;spacingLeft=4;spacingRight=4;overflow=hidden;rotatable=0;points=[[0,0.5],[1,0.5]];portConstraint=eastwest;" vertex="1" parent="zkfFHV4jXpPFQw0GAbJ--13">
          <mxGeometry y="450" width="525" height="26" as="geometry" />
        </mxCell>
        <mxCell id="GNeBYBOIqmBqG0EEJqLA-20" value="+ getState(): OrderState" style="text;align=left;verticalAlign=top;spacingLeft=4;spacingRight=4;overflow=hidden;rotatable=0;points=[[0,0.5],[1,0.5]];portConstraint=eastwest;" vertex="1" parent="zkfFHV4jXpPFQw0GAbJ--13">
          <mxGeometry y="476" width="525" height="26" as="geometry" />
        </mxCell>
        <mxCell id="GNeBYBOIqmBqG0EEJqLA-21" value="+ getArticles(): List&lt;OrderArticle&gt;" style="text;align=left;verticalAlign=top;spacingLeft=4;spacingRight=4;overflow=hidden;rotatable=0;points=[[0,0.5],[1,0.5]];portConstraint=eastwest;" vertex="1" parent="zkfFHV4jXpPFQw0GAbJ--13">
          <mxGeometry y="502" width="525" height="26" as="geometry" />
        </mxCell>
        <mxCell id="GNeBYBOIqmBqG0EEJqLA-22" value="+ getFilialId(): String" style="text;align=left;verticalAlign=top;spacingLeft=4;spacingRight=4;overflow=hidden;rotatable=0;points=[[0,0.5],[1,0.5]];portConstraint=eastwest;" vertex="1" parent="zkfFHV4jXpPFQw0GAbJ--13">
          <mxGeometry y="528" width="525" height="26" as="geometry" />
        </mxCell>
        <mxCell id="GNeBYBOIqmBqG0EEJqLA-23" value="+ verifyCustomerId(): void" style="text;align=left;verticalAlign=top;spacingLeft=4;spacingRight=4;overflow=hidden;rotatable=0;points=[[0,0.5],[1,0.5]];portConstraint=eastwest;" vertex="1" parent="zkfFHV4jXpPFQw0GAbJ--13">
          <mxGeometry y="554" width="525" height="26" as="geometry" />
        </mxCell>
        <mxCell id="GNeBYBOIqmBqG0EEJqLA-24" value="+ verifyArticleId(articleId: string): void" style="text;align=left;verticalAlign=top;spacingLeft=4;spacingRight=4;overflow=hidden;rotatable=0;points=[[0,0.5],[1,0.5]];portConstraint=eastwest;" vertex="1" parent="zkfFHV4jXpPFQw0GAbJ--13">
          <mxGeometry y="580" width="525" height="26" as="geometry" />
        </mxCell>
        <mxCell id="GNeBYBOIqmBqG0EEJqLA-25" value="+ setOrderState(state: OrderState): void" style="text;align=left;verticalAlign=top;spacingLeft=4;spacingRight=4;overflow=hidden;rotatable=0;points=[[0,0.5],[1,0.5]];portConstraint=eastwest;" vertex="1" parent="zkfFHV4jXpPFQw0GAbJ--13">
          <mxGeometry y="606" width="525" height="26" as="geometry" />
        </mxCell>
        <mxCell id="GNeBYBOIqmBqG0EEJqLA-26" value="- calculateTotalPrice(articles: List&lt;OrderArticle&gt;): float" style="text;align=left;verticalAlign=top;spacingLeft=4;spacingRight=4;overflow=hidden;rotatable=0;points=[[0,0.5],[1,0.5]];portConstraint=eastwest;" vertex="1" parent="zkfFHV4jXpPFQw0GAbJ--13">
          <mxGeometry y="632" width="525" height="26" as="geometry" />
        </mxCell>
        <mxCell id="zkfFHV4jXpPFQw0GAbJ--16" value="" style="endArrow=block;endSize=10;endFill=0;shadow=0;strokeWidth=1;rounded=0;edgeStyle=elbowEdgeStyle;elbow=vertical;" parent="WIyWlLk6GJQsqaUBKTNV-1" source="zkfFHV4jXpPFQw0GAbJ--13" target="zkfFHV4jXpPFQw0GAbJ--0" edge="1">
          <mxGeometry width="160" relative="1" as="geometry">
            <mxPoint x="210" y="373" as="sourcePoint" />
            <mxPoint x="310" y="271" as="targetPoint" />
          </mxGeometry>
        </mxCell>
        <mxCell id="GNeBYBOIqmBqG0EEJqLA-27" value="CreateOrderDto" style="swimlane;fontStyle=0;align=center;verticalAlign=top;childLayout=stackLayout;horizontal=1;startSize=26;horizontalStack=0;resizeParent=1;resizeLast=0;collapsible=1;marginBottom=0;rounded=0;shadow=0;strokeWidth=1;" vertex="1" parent="WIyWlLk6GJQsqaUBKTNV-1">
          <mxGeometry x="770" y="70" width="620" height="268" as="geometry">
            <mxRectangle x="230" y="140" width="160" height="26" as="alternateBounds" />
          </mxGeometry>
        </mxCell>
        <mxCell id="GNeBYBOIqmBqG0EEJqLA-28" value="- customerId: string" style="text;align=left;verticalAlign=top;spacingLeft=4;spacingRight=4;overflow=hidden;rotatable=0;points=[[0,0.5],[1,0.5]];portConstraint=eastwest;" vertex="1" parent="GNeBYBOIqmBqG0EEJqLA-27">
          <mxGeometry y="26" width="620" height="26" as="geometry" />
        </mxCell>
        <mxCell id="GNeBYBOIqmBqG0EEJqLA-34" value="- employeeId: string" style="text;align=left;verticalAlign=top;spacingLeft=4;spacingRight=4;overflow=hidden;rotatable=0;points=[[0,0.5],[1,0.5]];portConstraint=eastwest;" vertex="1" parent="GNeBYBOIqmBqG0EEJqLA-27">
          <mxGeometry y="52" width="620" height="26" as="geometry" />
        </mxCell>
        <mxCell id="GNeBYBOIqmBqG0EEJqLA-35" value="- articles: List&lt;OrderArticle&gt;" style="text;align=left;verticalAlign=top;spacingLeft=4;spacingRight=4;overflow=hidden;rotatable=0;points=[[0,0.5],[1,0.5]];portConstraint=eastwest;" vertex="1" parent="GNeBYBOIqmBqG0EEJqLA-27">
          <mxGeometry y="78" width="620" height="26" as="geometry" />
        </mxCell>
        <mxCell id="GNeBYBOIqmBqG0EEJqLA-36" value="- filialId: string" style="text;align=left;verticalAlign=top;spacingLeft=4;spacingRight=4;overflow=hidden;rotatable=0;points=[[0,0.5],[1,0.5]];portConstraint=eastwest;" vertex="1" parent="GNeBYBOIqmBqG0EEJqLA-27">
          <mxGeometry y="104" width="620" height="26" as="geometry" />
        </mxCell>
        <mxCell id="GNeBYBOIqmBqG0EEJqLA-29" value="" style="line;html=1;strokeWidth=1;align=left;verticalAlign=middle;spacingTop=-1;spacingLeft=3;spacingRight=3;rotatable=0;labelPosition=right;points=[];portConstraint=eastwest;" vertex="1" parent="GNeBYBOIqmBqG0EEJqLA-27">
          <mxGeometry y="130" width="620" height="8" as="geometry" />
        </mxCell>
        <mxCell id="GNeBYBOIqmBqG0EEJqLA-30" value="+ CreateOrderDto(customerId: string, employeeId: string, articles: List&lt;OrderArticle&gt; articles, filialId: string)" style="text;align=left;verticalAlign=top;spacingLeft=4;spacingRight=4;overflow=hidden;rotatable=0;points=[[0,0.5],[1,0.5]];portConstraint=eastwest;" vertex="1" parent="GNeBYBOIqmBqG0EEJqLA-27">
          <mxGeometry y="138" width="620" height="26" as="geometry" />
        </mxCell>
        <mxCell id="GNeBYBOIqmBqG0EEJqLA-31" value="+ getCustomerId(): string" style="text;align=left;verticalAlign=top;spacingLeft=4;spacingRight=4;overflow=hidden;rotatable=0;points=[[0,0.5],[1,0.5]];portConstraint=eastwest;" vertex="1" parent="GNeBYBOIqmBqG0EEJqLA-27">
          <mxGeometry y="164" width="620" height="26" as="geometry" />
        </mxCell>
        <mxCell id="GNeBYBOIqmBqG0EEJqLA-32" value="+ getEmployeeId(): string" style="text;align=left;verticalAlign=top;spacingLeft=4;spacingRight=4;overflow=hidden;rotatable=0;points=[[0,0.5],[1,0.5]];portConstraint=eastwest;" vertex="1" parent="GNeBYBOIqmBqG0EEJqLA-27">
          <mxGeometry y="190" width="620" height="26" as="geometry" />
        </mxCell>
        <mxCell id="GNeBYBOIqmBqG0EEJqLA-33" value="+ getArticles(): List&lt;OrderArticle&gt;" style="text;align=left;verticalAlign=top;spacingLeft=4;spacingRight=4;overflow=hidden;rotatable=0;points=[[0,0.5],[1,0.5]];portConstraint=eastwest;" vertex="1" parent="GNeBYBOIqmBqG0EEJqLA-27">
          <mxGeometry y="216" width="620" height="26" as="geometry" />
        </mxCell>
        <mxCell id="GNeBYBOIqmBqG0EEJqLA-37" value="+ getFilialId(): string" style="text;align=left;verticalAlign=top;spacingLeft=4;spacingRight=4;overflow=hidden;rotatable=0;points=[[0,0.5],[1,0.5]];portConstraint=eastwest;" vertex="1" parent="GNeBYBOIqmBqG0EEJqLA-27">
          <mxGeometry y="242" width="620" height="26" as="geometry" />
        </mxCell>
        <mxCell id="GNeBYBOIqmBqG0EEJqLA-38" value="DeleteOrderDto" style="swimlane;fontStyle=0;align=center;verticalAlign=top;childLayout=stackLayout;horizontal=1;startSize=26;horizontalStack=0;resizeParent=1;resizeLast=0;collapsible=1;marginBottom=0;rounded=0;shadow=0;strokeWidth=1;" vertex="1" parent="WIyWlLk6GJQsqaUBKTNV-1">
          <mxGeometry x="1160" y="370" width="210" height="170" as="geometry">
            <mxRectangle x="230" y="140" width="160" height="26" as="alternateBounds" />
          </mxGeometry>
        </mxCell>
        <mxCell id="GNeBYBOIqmBqG0EEJqLA-39" value="- orderId: string" style="text;align=left;verticalAlign=top;spacingLeft=4;spacingRight=4;overflow=hidden;rotatable=0;points=[[0,0.5],[1,0.5]];portConstraint=eastwest;" vertex="1" parent="GNeBYBOIqmBqG0EEJqLA-38">
          <mxGeometry y="26" width="210" height="26" as="geometry" />
        </mxCell>
        <mxCell id="GNeBYBOIqmBqG0EEJqLA-40" value="- eTag: long" style="text;align=left;verticalAlign=top;spacingLeft=4;spacingRight=4;overflow=hidden;rotatable=0;points=[[0,0.5],[1,0.5]];portConstraint=eastwest;" vertex="1" parent="GNeBYBOIqmBqG0EEJqLA-38">
          <mxGeometry y="52" width="210" height="26" as="geometry" />
        </mxCell>
        <mxCell id="GNeBYBOIqmBqG0EEJqLA-43" value="" style="line;html=1;strokeWidth=1;align=left;verticalAlign=middle;spacingTop=-1;spacingLeft=3;spacingRight=3;rotatable=0;labelPosition=right;points=[];portConstraint=eastwest;" vertex="1" parent="GNeBYBOIqmBqG0EEJqLA-38">
          <mxGeometry y="78" width="210" height="8" as="geometry" />
        </mxCell>
        <mxCell id="GNeBYBOIqmBqG0EEJqLA-44" value="+ DeleteOrderDto()" style="text;align=left;verticalAlign=top;spacingLeft=4;spacingRight=4;overflow=hidden;rotatable=0;points=[[0,0.5],[1,0.5]];portConstraint=eastwest;" vertex="1" parent="GNeBYBOIqmBqG0EEJqLA-38">
          <mxGeometry y="86" width="210" height="26" as="geometry" />
        </mxCell>
        <mxCell id="GNeBYBOIqmBqG0EEJqLA-45" value="+ getOrderId(): string" style="text;align=left;verticalAlign=top;spacingLeft=4;spacingRight=4;overflow=hidden;rotatable=0;points=[[0,0.5],[1,0.5]];portConstraint=eastwest;" vertex="1" parent="GNeBYBOIqmBqG0EEJqLA-38">
          <mxGeometry y="112" width="210" height="26" as="geometry" />
        </mxCell>
        <mxCell id="GNeBYBOIqmBqG0EEJqLA-46" value="+ getEtag(): long" style="text;align=left;verticalAlign=top;spacingLeft=4;spacingRight=4;overflow=hidden;rotatable=0;points=[[0,0.5],[1,0.5]];portConstraint=eastwest;" vertex="1" parent="GNeBYBOIqmBqG0EEJqLA-38">
          <mxGeometry y="138" width="210" height="26" as="geometry" />
        </mxCell>
        <mxCell id="GNeBYBOIqmBqG0EEJqLA-49" value="OrderArticle" style="swimlane;fontStyle=0;align=center;verticalAlign=top;childLayout=stackLayout;horizontal=1;startSize=26;horizontalStack=0;resizeParent=1;resizeLast=0;collapsible=1;marginBottom=0;rounded=0;shadow=0;strokeWidth=1;" vertex="1" parent="WIyWlLk6GJQsqaUBKTNV-1">
          <mxGeometry x="740" y="680" width="330" height="216" as="geometry">
            <mxRectangle x="230" y="140" width="160" height="26" as="alternateBounds" />
          </mxGeometry>
        </mxCell>
        <mxCell id="GNeBYBOIqmBqG0EEJqLA-50" value="- articleId: string" style="text;align=left;verticalAlign=top;spacingLeft=4;spacingRight=4;overflow=hidden;rotatable=0;points=[[0,0.5],[1,0.5]];portConstraint=eastwest;" vertex="1" parent="GNeBYBOIqmBqG0EEJqLA-49">
          <mxGeometry y="26" width="330" height="26" as="geometry" />
        </mxCell>
        <mxCell id="GNeBYBOIqmBqG0EEJqLA-51" value="- unitPrice: float" style="text;align=left;verticalAlign=top;spacingLeft=4;spacingRight=4;overflow=hidden;rotatable=0;points=[[0,0.5],[1,0.5]];portConstraint=eastwest;" vertex="1" parent="GNeBYBOIqmBqG0EEJqLA-49">
          <mxGeometry y="52" width="330" height="26" as="geometry" />
        </mxCell>
        <mxCell id="GNeBYBOIqmBqG0EEJqLA-56" value="- amount: int" style="text;align=left;verticalAlign=top;spacingLeft=4;spacingRight=4;overflow=hidden;rotatable=0;points=[[0,0.5],[1,0.5]];portConstraint=eastwest;" vertex="1" parent="GNeBYBOIqmBqG0EEJqLA-49">
          <mxGeometry y="78" width="330" height="26" as="geometry" />
        </mxCell>
        <mxCell id="GNeBYBOIqmBqG0EEJqLA-52" value="" style="line;html=1;strokeWidth=1;align=left;verticalAlign=middle;spacingTop=-1;spacingLeft=3;spacingRight=3;rotatable=0;labelPosition=right;points=[];portConstraint=eastwest;" vertex="1" parent="GNeBYBOIqmBqG0EEJqLA-49">
          <mxGeometry y="104" width="330" height="8" as="geometry" />
        </mxCell>
        <mxCell id="GNeBYBOIqmBqG0EEJqLA-53" value="+ OrderArticle(articleId: string, unitPrice: float, amount: int)" style="text;align=left;verticalAlign=top;spacingLeft=4;spacingRight=4;overflow=hidden;rotatable=0;points=[[0,0.5],[1,0.5]];portConstraint=eastwest;" vertex="1" parent="GNeBYBOIqmBqG0EEJqLA-49">
          <mxGeometry y="112" width="330" height="26" as="geometry" />
        </mxCell>
        <mxCell id="GNeBYBOIqmBqG0EEJqLA-54" value="+ getArticleId(): string" style="text;align=left;verticalAlign=top;spacingLeft=4;spacingRight=4;overflow=hidden;rotatable=0;points=[[0,0.5],[1,0.5]];portConstraint=eastwest;" vertex="1" parent="GNeBYBOIqmBqG0EEJqLA-49">
          <mxGeometry y="138" width="330" height="26" as="geometry" />
        </mxCell>
        <mxCell id="GNeBYBOIqmBqG0EEJqLA-55" value="+ getUnitPrice(): float" style="text;align=left;verticalAlign=top;spacingLeft=4;spacingRight=4;overflow=hidden;rotatable=0;points=[[0,0.5],[1,0.5]];portConstraint=eastwest;" vertex="1" parent="GNeBYBOIqmBqG0EEJqLA-49">
          <mxGeometry y="164" width="330" height="26" as="geometry" />
        </mxCell>
        <mxCell id="GNeBYBOIqmBqG0EEJqLA-57" value="+ getAmount(): float" style="text;align=left;verticalAlign=top;spacingLeft=4;spacingRight=4;overflow=hidden;rotatable=0;points=[[0,0.5],[1,0.5]];portConstraint=eastwest;" vertex="1" parent="GNeBYBOIqmBqG0EEJqLA-49">
          <mxGeometry y="190" width="330" height="26" as="geometry" />
        </mxCell>
        <mxCell id="GNeBYBOIqmBqG0EEJqLA-58" value="&lt;&lt;enum&gt;&gt; OrderState" style="swimlane;fontStyle=0;align=center;verticalAlign=top;childLayout=stackLayout;horizontal=1;startSize=26;horizontalStack=0;resizeParent=1;resizeLast=0;collapsible=1;marginBottom=0;rounded=0;shadow=0;strokeWidth=1;" vertex="1" parent="WIyWlLk6GJQsqaUBKTNV-1">
          <mxGeometry x="730" y="410" width="230" height="162" as="geometry">
            <mxRectangle x="230" y="140" width="160" height="26" as="alternateBounds" />
          </mxGeometry>
        </mxCell>
        <mxCell id="GNeBYBOIqmBqG0EEJqLA-59" value="+ Bestellt" style="text;align=left;verticalAlign=top;spacingLeft=4;spacingRight=4;overflow=hidden;rotatable=0;points=[[0,0.5],[1,0.5]];portConstraint=eastwest;" vertex="1" parent="GNeBYBOIqmBqG0EEJqLA-58">
          <mxGeometry y="26" width="230" height="26" as="geometry" />
        </mxCell>
        <mxCell id="GNeBYBOIqmBqG0EEJqLA-67" value="+ Bestätigt" style="text;align=left;verticalAlign=top;spacingLeft=4;spacingRight=4;overflow=hidden;rotatable=0;points=[[0,0.5],[1,0.5]];portConstraint=eastwest;" vertex="1" parent="GNeBYBOIqmBqG0EEJqLA-58">
          <mxGeometry y="52" width="230" height="26" as="geometry" />
        </mxCell>
        <mxCell id="GNeBYBOIqmBqG0EEJqLA-68" value="+ Annuliert" style="text;align=left;verticalAlign=top;spacingLeft=4;spacingRight=4;overflow=hidden;rotatable=0;points=[[0,0.5],[1,0.5]];portConstraint=eastwest;" vertex="1" parent="GNeBYBOIqmBqG0EEJqLA-58">
          <mxGeometry y="78" width="230" height="26" as="geometry" />
        </mxCell>
        <mxCell id="GNeBYBOIqmBqG0EEJqLA-69" value="+ Versendet" style="text;align=left;verticalAlign=top;spacingLeft=4;spacingRight=4;overflow=hidden;rotatable=0;points=[[0,0.5],[1,0.5]];portConstraint=eastwest;" vertex="1" parent="GNeBYBOIqmBqG0EEJqLA-58">
          <mxGeometry y="104" width="230" height="26" as="geometry" />
        </mxCell>
        <mxCell id="GNeBYBOIqmBqG0EEJqLA-70" value="+ Failed" style="text;align=left;verticalAlign=top;spacingLeft=4;spacingRight=4;overflow=hidden;rotatable=0;points=[[0,0.5],[1,0.5]];portConstraint=eastwest;" vertex="1" parent="GNeBYBOIqmBqG0EEJqLA-58">
          <mxGeometry y="130" width="230" height="26" as="geometry" />
        </mxCell>
        <mxCell id="GNeBYBOIqmBqG0EEJqLA-71" value="" style="endArrow=none;html=1;edgeStyle=orthogonalEdgeStyle;rounded=0;" edge="1" parent="WIyWlLk6GJQsqaUBKTNV-1" source="zkfFHV4jXpPFQw0GAbJ--13" target="GNeBYBOIqmBqG0EEJqLA-58">
          <mxGeometry relative="1" as="geometry">
            <mxPoint x="660" y="730" as="sourcePoint" />
            <mxPoint x="820" y="730" as="targetPoint" />
          </mxGeometry>
        </mxCell>
        <mxCell id="GNeBYBOIqmBqG0EEJqLA-72" value="1" style="edgeLabel;resizable=0;html=1;align=left;verticalAlign=bottom;" connectable="0" vertex="1" parent="GNeBYBOIqmBqG0EEJqLA-71">
          <mxGeometry x="-1" relative="1" as="geometry" />
        </mxCell>
        <mxCell id="GNeBYBOIqmBqG0EEJqLA-73" value="1" style="edgeLabel;resizable=0;html=1;align=right;verticalAlign=bottom;" connectable="0" vertex="1" parent="GNeBYBOIqmBqG0EEJqLA-71">
          <mxGeometry x="1" relative="1" as="geometry" />
        </mxCell>
        <mxCell id="GNeBYBOIqmBqG0EEJqLA-74" value="" style="endArrow=none;html=1;edgeStyle=orthogonalEdgeStyle;rounded=0;" edge="1" parent="WIyWlLk6GJQsqaUBKTNV-1" source="zkfFHV4jXpPFQw0GAbJ--13" target="GNeBYBOIqmBqG0EEJqLA-49">
          <mxGeometry relative="1" as="geometry">
            <mxPoint x="610" y="619" as="sourcePoint" />
            <mxPoint x="740" y="501" as="targetPoint" />
            <Array as="points">
              <mxPoint x="670" y="660" />
              <mxPoint x="670" y="788" />
            </Array>
          </mxGeometry>
        </mxCell>
        <mxCell id="GNeBYBOIqmBqG0EEJqLA-75" value="1" style="edgeLabel;resizable=0;html=1;align=left;verticalAlign=bottom;" connectable="0" vertex="1" parent="GNeBYBOIqmBqG0EEJqLA-74">
          <mxGeometry x="-1" relative="1" as="geometry" />
        </mxCell>
        <mxCell id="GNeBYBOIqmBqG0EEJqLA-76" value="0..n" style="edgeLabel;resizable=0;html=1;align=right;verticalAlign=bottom;" connectable="0" vertex="1" parent="GNeBYBOIqmBqG0EEJqLA-74">
          <mxGeometry x="1" relative="1" as="geometry">
            <mxPoint x="-10" as="offset" />
          </mxGeometry>
        </mxCell>
        <mxCell id="GNeBYBOIqmBqG0EEJqLA-79" value="VerifyableProperty&lt;T&gt;" style="swimlane;fontStyle=0;align=center;verticalAlign=top;childLayout=stackLayout;horizontal=1;startSize=26;horizontalStack=0;resizeParent=1;resizeLast=0;collapsible=1;marginBottom=0;rounded=0;shadow=0;strokeWidth=1;" vertex="1" parent="WIyWlLk6GJQsqaUBKTNV-1">
          <mxGeometry x="1160" y="620" width="210" height="268" as="geometry">
            <mxRectangle x="230" y="140" width="160" height="26" as="alternateBounds" />
          </mxGeometry>
        </mxCell>
        <mxCell id="GNeBYBOIqmBqG0EEJqLA-80" value="- value: T" style="text;align=left;verticalAlign=top;spacingLeft=4;spacingRight=4;overflow=hidden;rotatable=0;points=[[0,0.5],[1,0.5]];portConstraint=eastwest;" vertex="1" parent="GNeBYBOIqmBqG0EEJqLA-79">
          <mxGeometry y="26" width="210" height="26" as="geometry" />
        </mxCell>
        <mxCell id="GNeBYBOIqmBqG0EEJqLA-81" value="- verified: boolean" style="text;align=left;verticalAlign=top;spacingLeft=4;spacingRight=4;overflow=hidden;rotatable=0;points=[[0,0.5],[1,0.5]];portConstraint=eastwest;" vertex="1" parent="GNeBYBOIqmBqG0EEJqLA-79">
          <mxGeometry y="52" width="210" height="26" as="geometry" />
        </mxCell>
        <mxCell id="GNeBYBOIqmBqG0EEJqLA-86" value="- reason: Reason" style="text;align=left;verticalAlign=top;spacingLeft=4;spacingRight=4;overflow=hidden;rotatable=0;points=[[0,0.5],[1,0.5]];portConstraint=eastwest;" vertex="1" parent="GNeBYBOIqmBqG0EEJqLA-79">
          <mxGeometry y="78" width="210" height="26" as="geometry" />
        </mxCell>
        <mxCell id="GNeBYBOIqmBqG0EEJqLA-82" value="" style="line;html=1;strokeWidth=1;align=left;verticalAlign=middle;spacingTop=-1;spacingLeft=3;spacingRight=3;rotatable=0;labelPosition=right;points=[];portConstraint=eastwest;" vertex="1" parent="GNeBYBOIqmBqG0EEJqLA-79">
          <mxGeometry y="104" width="210" height="8" as="geometry" />
        </mxCell>
        <mxCell id="GNeBYBOIqmBqG0EEJqLA-83" value="+ VerifyableProperty(value: T)" style="text;align=left;verticalAlign=top;spacingLeft=4;spacingRight=4;overflow=hidden;rotatable=0;points=[[0,0.5],[1,0.5]];portConstraint=eastwest;" vertex="1" parent="GNeBYBOIqmBqG0EEJqLA-79">
          <mxGeometry y="112" width="210" height="26" as="geometry" />
        </mxCell>
        <mxCell id="GNeBYBOIqmBqG0EEJqLA-84" value="+ verify(): void" style="text;align=left;verticalAlign=top;spacingLeft=4;spacingRight=4;overflow=hidden;rotatable=0;points=[[0,0.5],[1,0.5]];portConstraint=eastwest;" vertex="1" parent="GNeBYBOIqmBqG0EEJqLA-79">
          <mxGeometry y="138" width="210" height="26" as="geometry" />
        </mxCell>
        <mxCell id="GNeBYBOIqmBqG0EEJqLA-85" value="+ isVerified(): boolean" style="text;align=left;verticalAlign=top;spacingLeft=4;spacingRight=4;overflow=hidden;rotatable=0;points=[[0,0.5],[1,0.5]];portConstraint=eastwest;" vertex="1" parent="GNeBYBOIqmBqG0EEJqLA-79">
          <mxGeometry y="164" width="210" height="26" as="geometry" />
        </mxCell>
        <mxCell id="GNeBYBOIqmBqG0EEJqLA-87" value="+ setValue(value: T): void" style="text;align=left;verticalAlign=top;spacingLeft=4;spacingRight=4;overflow=hidden;rotatable=0;points=[[0,0.5],[1,0.5]];portConstraint=eastwest;" vertex="1" parent="GNeBYBOIqmBqG0EEJqLA-79">
          <mxGeometry y="190" width="210" height="26" as="geometry" />
        </mxCell>
        <mxCell id="GNeBYBOIqmBqG0EEJqLA-88" value="+ getValue(): T" style="text;align=left;verticalAlign=top;spacingLeft=4;spacingRight=4;overflow=hidden;rotatable=0;points=[[0,0.5],[1,0.5]];portConstraint=eastwest;" vertex="1" parent="GNeBYBOIqmBqG0EEJqLA-79">
          <mxGeometry y="216" width="210" height="26" as="geometry" />
        </mxCell>
        <mxCell id="GNeBYBOIqmBqG0EEJqLA-89" value="+ getReason(): Reason" style="text;align=left;verticalAlign=top;spacingLeft=4;spacingRight=4;overflow=hidden;rotatable=0;points=[[0,0.5],[1,0.5]];portConstraint=eastwest;" vertex="1" parent="GNeBYBOIqmBqG0EEJqLA-79">
          <mxGeometry y="242" width="210" height="26" as="geometry" />
        </mxCell>
        <mxCell id="GNeBYBOIqmBqG0EEJqLA-90" value="&lt;&lt;enum&gt;&gt; Reason" style="swimlane;fontStyle=0;align=center;verticalAlign=top;childLayout=stackLayout;horizontal=1;startSize=26;horizontalStack=0;resizeParent=1;resizeLast=0;collapsible=1;marginBottom=0;rounded=0;shadow=0;strokeWidth=1;" vertex="1" parent="WIyWlLk6GJQsqaUBKTNV-1">
          <mxGeometry x="1510" y="660" width="210" height="90" as="geometry">
            <mxRectangle x="230" y="140" width="160" height="26" as="alternateBounds" />
          </mxGeometry>
        </mxCell>
        <mxCell id="GNeBYBOIqmBqG0EEJqLA-92" value="+ NOT_FOUND" style="text;align=left;verticalAlign=top;spacingLeft=4;spacingRight=4;overflow=hidden;rotatable=0;points=[[0,0.5],[1,0.5]];portConstraint=eastwest;" vertex="1" parent="GNeBYBOIqmBqG0EEJqLA-90">
          <mxGeometry y="26" width="210" height="26" as="geometry" />
        </mxCell>
        <mxCell id="GNeBYBOIqmBqG0EEJqLA-101" value="+ INSUFFICIENT_AMOUNT" style="text;align=left;verticalAlign=top;spacingLeft=4;spacingRight=4;overflow=hidden;rotatable=0;points=[[0,0.5],[1,0.5]];portConstraint=eastwest;" vertex="1" parent="GNeBYBOIqmBqG0EEJqLA-90">
          <mxGeometry y="52" width="210" height="26" as="geometry" />
        </mxCell>
        <mxCell id="GNeBYBOIqmBqG0EEJqLA-102" value="" style="endArrow=none;html=1;edgeStyle=orthogonalEdgeStyle;rounded=0;" edge="1" parent="WIyWlLk6GJQsqaUBKTNV-1" source="GNeBYBOIqmBqG0EEJqLA-79" target="GNeBYBOIqmBqG0EEJqLA-90">
          <mxGeometry relative="1" as="geometry">
            <mxPoint x="610" y="619" as="sourcePoint" />
            <mxPoint x="740" y="501" as="targetPoint" />
          </mxGeometry>
        </mxCell>
        <mxCell id="GNeBYBOIqmBqG0EEJqLA-103" value="1" style="edgeLabel;resizable=0;html=1;align=left;verticalAlign=bottom;" connectable="0" vertex="1" parent="GNeBYBOIqmBqG0EEJqLA-102">
          <mxGeometry x="-1" relative="1" as="geometry" />
        </mxCell>
        <mxCell id="GNeBYBOIqmBqG0EEJqLA-104" value="0..1" style="edgeLabel;resizable=0;html=1;align=right;verticalAlign=bottom;" connectable="0" vertex="1" parent="GNeBYBOIqmBqG0EEJqLA-102">
          <mxGeometry x="1" relative="1" as="geometry" />
        </mxCell>
        <mxCell id="GNeBYBOIqmBqG0EEJqLA-105" value="ch.hslu.swda.g06.order.repository" style="rounded=0;whiteSpace=wrap;html=1;align=left;verticalAlign=top;" vertex="1" parent="WIyWlLk6GJQsqaUBKTNV-1">
          <mxGeometry x="1410" y="1190" width="520" height="320" as="geometry" />
        </mxCell>
        <mxCell id="GNeBYBOIqmBqG0EEJqLA-106" value="&lt;&lt;interface&gt;&gt; IOrderRepository" style="swimlane;fontStyle=0;align=center;verticalAlign=top;childLayout=stackLayout;horizontal=1;startSize=26;horizontalStack=0;resizeParent=1;resizeLast=0;collapsible=1;marginBottom=0;rounded=0;shadow=0;strokeWidth=1;" vertex="1" parent="WIyWlLk6GJQsqaUBKTNV-1">
          <mxGeometry x="1560" y="1380" width="210" height="50" as="geometry">
            <mxRectangle x="230" y="140" width="160" height="26" as="alternateBounds" />
          </mxGeometry>
        </mxCell>
        <mxCell id="GNeBYBOIqmBqG0EEJqLA-109" value="MongoRepository&lt;T, Y&gt;" style="swimlane;fontStyle=0;align=center;verticalAlign=top;childLayout=stackLayout;horizontal=1;startSize=26;horizontalStack=0;resizeParent=1;resizeLast=0;collapsible=1;marginBottom=0;rounded=0;shadow=0;strokeWidth=1;" vertex="1" parent="WIyWlLk6GJQsqaUBKTNV-1">
          <mxGeometry x="1560" y="1250" width="210" height="50" as="geometry">
            <mxRectangle x="230" y="140" width="160" height="26" as="alternateBounds" />
          </mxGeometry>
        </mxCell>
        <mxCell id="GNeBYBOIqmBqG0EEJqLA-110" value="T = Order, Y = String" style="endArrow=block;endSize=10;endFill=0;shadow=0;strokeWidth=1;rounded=0;edgeStyle=elbowEdgeStyle;elbow=vertical;" edge="1" parent="WIyWlLk6GJQsqaUBKTNV-1" source="GNeBYBOIqmBqG0EEJqLA-106" target="GNeBYBOIqmBqG0EEJqLA-109">
          <mxGeometry width="160" relative="1" as="geometry">
            <mxPoint x="-202" y="1440" as="sourcePoint" />
            <mxPoint x="-202" y="1394" as="targetPoint" />
          </mxGeometry>
        </mxCell>
        <mxCell id="GNeBYBOIqmBqG0EEJqLA-111" value="ch.hslu.swda.g06.order.Logging" style="rounded=0;whiteSpace=wrap;html=1;align=left;verticalAlign=top;" vertex="1" parent="WIyWlLk6GJQsqaUBKTNV-1">
          <mxGeometry x="1880" y="251" width="1540" height="480" as="geometry" />
        </mxCell>
        <mxCell id="GNeBYBOIqmBqG0EEJqLA-112" value="ch.hslu.swda.g06.order.Logging.model" style="rounded=0;whiteSpace=wrap;html=1;align=left;verticalAlign=top;" vertex="1" parent="WIyWlLk6GJQsqaUBKTNV-1">
          <mxGeometry x="1910" y="293" width="750" height="350" as="geometry" />
        </mxCell>
        <mxCell id="GNeBYBOIqmBqG0EEJqLA-113" value="Action" style="swimlane;fontStyle=0;align=center;verticalAlign=top;childLayout=stackLayout;horizontal=1;startSize=26;horizontalStack=0;resizeParent=1;resizeLast=0;collapsible=1;marginBottom=0;rounded=0;shadow=0;strokeWidth=1;" vertex="1" parent="WIyWlLk6GJQsqaUBKTNV-1">
          <mxGeometry x="1930" y="333" width="320" height="294" as="geometry">
            <mxRectangle x="230" y="140" width="160" height="26" as="alternateBounds" />
          </mxGeometry>
        </mxCell>
        <mxCell id="GNeBYBOIqmBqG0EEJqLA-114" value="- action: String" style="text;align=left;verticalAlign=top;spacingLeft=4;spacingRight=4;overflow=hidden;rotatable=0;points=[[0,0.5],[1,0.5]];portConstraint=eastwest;" vertex="1" parent="GNeBYBOIqmBqG0EEJqLA-113">
          <mxGeometry y="26" width="320" height="26" as="geometry" />
        </mxCell>
        <mxCell id="GNeBYBOIqmBqG0EEJqLA-124" value="- entityName: String" style="text;align=left;verticalAlign=top;spacingLeft=4;spacingRight=4;overflow=hidden;rotatable=0;points=[[0,0.5],[1,0.5]];portConstraint=eastwest;" vertex="1" parent="GNeBYBOIqmBqG0EEJqLA-113">
          <mxGeometry y="52" width="320" height="26" as="geometry" />
        </mxCell>
        <mxCell id="GNeBYBOIqmBqG0EEJqLA-125" value="- entityId: String" style="text;align=left;verticalAlign=top;spacingLeft=4;spacingRight=4;overflow=hidden;rotatable=0;points=[[0,0.5],[1,0.5]];portConstraint=eastwest;" vertex="1" parent="GNeBYBOIqmBqG0EEJqLA-113">
          <mxGeometry y="78" width="320" height="26" as="geometry" />
        </mxCell>
        <mxCell id="GNeBYBOIqmBqG0EEJqLA-117" value="" style="line;html=1;strokeWidth=1;align=left;verticalAlign=middle;spacingTop=-1;spacingLeft=3;spacingRight=3;rotatable=0;labelPosition=right;points=[];portConstraint=eastwest;" vertex="1" parent="GNeBYBOIqmBqG0EEJqLA-113">
          <mxGeometry y="104" width="320" height="8" as="geometry" />
        </mxCell>
        <mxCell id="GNeBYBOIqmBqG0EEJqLA-118" value="+ Action(action: String, entityName: String, entityId: String)" style="text;align=left;verticalAlign=top;spacingLeft=4;spacingRight=4;overflow=hidden;rotatable=0;points=[[0,0.5],[1,0.5]];portConstraint=eastwest;" vertex="1" parent="GNeBYBOIqmBqG0EEJqLA-113">
          <mxGeometry y="112" width="320" height="26" as="geometry" />
        </mxCell>
        <mxCell id="GNeBYBOIqmBqG0EEJqLA-126" value="+ getAction(): String" style="text;align=left;verticalAlign=top;spacingLeft=4;spacingRight=4;overflow=hidden;rotatable=0;points=[[0,0.5],[1,0.5]];portConstraint=eastwest;" vertex="1" parent="GNeBYBOIqmBqG0EEJqLA-113">
          <mxGeometry y="138" width="320" height="26" as="geometry" />
        </mxCell>
        <mxCell id="GNeBYBOIqmBqG0EEJqLA-127" value="+ setAction(action: String): void" style="text;align=left;verticalAlign=top;spacingLeft=4;spacingRight=4;overflow=hidden;rotatable=0;points=[[0,0.5],[1,0.5]];portConstraint=eastwest;" vertex="1" parent="GNeBYBOIqmBqG0EEJqLA-113">
          <mxGeometry y="164" width="320" height="26" as="geometry" />
        </mxCell>
        <mxCell id="GNeBYBOIqmBqG0EEJqLA-128" value="+ getEntityName(): String" style="text;align=left;verticalAlign=top;spacingLeft=4;spacingRight=4;overflow=hidden;rotatable=0;points=[[0,0.5],[1,0.5]];portConstraint=eastwest;" vertex="1" parent="GNeBYBOIqmBqG0EEJqLA-113">
          <mxGeometry y="190" width="320" height="26" as="geometry" />
        </mxCell>
        <mxCell id="GNeBYBOIqmBqG0EEJqLA-129" value="+ setEntityName(entityName: String): void" style="text;align=left;verticalAlign=top;spacingLeft=4;spacingRight=4;overflow=hidden;rotatable=0;points=[[0,0.5],[1,0.5]];portConstraint=eastwest;" vertex="1" parent="GNeBYBOIqmBqG0EEJqLA-113">
          <mxGeometry y="216" width="320" height="26" as="geometry" />
        </mxCell>
        <mxCell id="GNeBYBOIqmBqG0EEJqLA-130" value="+ getEntityId(): String" style="text;align=left;verticalAlign=top;spacingLeft=4;spacingRight=4;overflow=hidden;rotatable=0;points=[[0,0.5],[1,0.5]];portConstraint=eastwest;" vertex="1" parent="GNeBYBOIqmBqG0EEJqLA-113">
          <mxGeometry y="242" width="320" height="26" as="geometry" />
        </mxCell>
        <mxCell id="GNeBYBOIqmBqG0EEJqLA-131" value="+ setEntityId(entityId: String): void" style="text;align=left;verticalAlign=top;spacingLeft=4;spacingRight=4;overflow=hidden;rotatable=0;points=[[0,0.5],[1,0.5]];portConstraint=eastwest;" vertex="1" parent="GNeBYBOIqmBqG0EEJqLA-113">
          <mxGeometry y="268" width="320" height="26" as="geometry" />
        </mxCell>
        <mxCell id="GNeBYBOIqmBqG0EEJqLA-132" value="Log" style="swimlane;fontStyle=0;align=center;verticalAlign=top;childLayout=stackLayout;horizontal=1;startSize=26;horizontalStack=0;resizeParent=1;resizeLast=0;collapsible=1;marginBottom=0;rounded=0;shadow=0;strokeWidth=1;" vertex="1" parent="WIyWlLk6GJQsqaUBKTNV-1">
          <mxGeometry x="2320" y="333" width="320" height="230" as="geometry">
            <mxRectangle x="230" y="140" width="160" height="26" as="alternateBounds" />
          </mxGeometry>
        </mxCell>
        <mxCell id="GNeBYBOIqmBqG0EEJqLA-133" value="- action: Action" style="text;align=left;verticalAlign=top;spacingLeft=4;spacingRight=4;overflow=hidden;rotatable=0;points=[[0,0.5],[1,0.5]];portConstraint=eastwest;" vertex="1" parent="GNeBYBOIqmBqG0EEJqLA-132">
          <mxGeometry y="26" width="320" height="26" as="geometry" />
        </mxCell>
        <mxCell id="GNeBYBOIqmBqG0EEJqLA-134" value="- storeId: String" style="text;align=left;verticalAlign=top;spacingLeft=4;spacingRight=4;overflow=hidden;rotatable=0;points=[[0,0.5],[1,0.5]];portConstraint=eastwest;" vertex="1" parent="GNeBYBOIqmBqG0EEJqLA-132">
          <mxGeometry y="52" width="320" height="26" as="geometry" />
        </mxCell>
        <mxCell id="GNeBYBOIqmBqG0EEJqLA-136" value="" style="line;html=1;strokeWidth=1;align=left;verticalAlign=middle;spacingTop=-1;spacingLeft=3;spacingRight=3;rotatable=0;labelPosition=right;points=[];portConstraint=eastwest;" vertex="1" parent="GNeBYBOIqmBqG0EEJqLA-132">
          <mxGeometry y="78" width="320" height="8" as="geometry" />
        </mxCell>
        <mxCell id="GNeBYBOIqmBqG0EEJqLA-137" value="+ Log(action: Action, storeId: String)" style="text;align=left;verticalAlign=top;spacingLeft=4;spacingRight=4;overflow=hidden;rotatable=0;points=[[0,0.5],[1,0.5]];portConstraint=eastwest;" vertex="1" parent="GNeBYBOIqmBqG0EEJqLA-132">
          <mxGeometry y="86" width="320" height="26" as="geometry" />
        </mxCell>
        <mxCell id="GNeBYBOIqmBqG0EEJqLA-138" value="+ getAction(): Action" style="text;align=left;verticalAlign=top;spacingLeft=4;spacingRight=4;overflow=hidden;rotatable=0;points=[[0,0.5],[1,0.5]];portConstraint=eastwest;" vertex="1" parent="GNeBYBOIqmBqG0EEJqLA-132">
          <mxGeometry y="112" width="320" height="26" as="geometry" />
        </mxCell>
        <mxCell id="GNeBYBOIqmBqG0EEJqLA-139" value="+ setAction(action: Action): void" style="text;align=left;verticalAlign=top;spacingLeft=4;spacingRight=4;overflow=hidden;rotatable=0;points=[[0,0.5],[1,0.5]];portConstraint=eastwest;" vertex="1" parent="GNeBYBOIqmBqG0EEJqLA-132">
          <mxGeometry y="138" width="320" height="26" as="geometry" />
        </mxCell>
        <mxCell id="GNeBYBOIqmBqG0EEJqLA-140" value="+ getStoreId(): String" style="text;align=left;verticalAlign=top;spacingLeft=4;spacingRight=4;overflow=hidden;rotatable=0;points=[[0,0.5],[1,0.5]];portConstraint=eastwest;" vertex="1" parent="GNeBYBOIqmBqG0EEJqLA-132">
          <mxGeometry y="164" width="320" height="26" as="geometry" />
        </mxCell>
        <mxCell id="GNeBYBOIqmBqG0EEJqLA-141" value="+ setStoreId(storeId: String): void" style="text;align=left;verticalAlign=top;spacingLeft=4;spacingRight=4;overflow=hidden;rotatable=0;points=[[0,0.5],[1,0.5]];portConstraint=eastwest;" vertex="1" parent="GNeBYBOIqmBqG0EEJqLA-132">
          <mxGeometry y="190" width="320" height="26" as="geometry" />
        </mxCell>
        <mxCell id="GNeBYBOIqmBqG0EEJqLA-144" value="" style="endArrow=none;html=1;edgeStyle=orthogonalEdgeStyle;rounded=0;" edge="1" parent="WIyWlLk6GJQsqaUBKTNV-1" source="GNeBYBOIqmBqG0EEJqLA-113" target="GNeBYBOIqmBqG0EEJqLA-132">
          <mxGeometry relative="1" as="geometry">
            <mxPoint x="1300" y="607" as="sourcePoint" />
            <mxPoint x="1440" y="558" as="targetPoint" />
          </mxGeometry>
        </mxCell>
        <mxCell id="GNeBYBOIqmBqG0EEJqLA-145" value="1" style="edgeLabel;resizable=0;html=1;align=left;verticalAlign=bottom;" connectable="0" vertex="1" parent="GNeBYBOIqmBqG0EEJqLA-144">
          <mxGeometry x="-1" relative="1" as="geometry" />
        </mxCell>
        <mxCell id="GNeBYBOIqmBqG0EEJqLA-146" value="1" style="edgeLabel;resizable=0;html=1;align=right;verticalAlign=bottom;" connectable="0" vertex="1" parent="GNeBYBOIqmBqG0EEJqLA-144">
          <mxGeometry x="1" relative="1" as="geometry" />
        </mxCell>
        <mxCell id="GNeBYBOIqmBqG0EEJqLA-147" value="SendLog" style="swimlane;fontStyle=0;align=center;verticalAlign=top;childLayout=stackLayout;horizontal=1;startSize=26;horizontalStack=0;resizeParent=1;resizeLast=0;collapsible=1;marginBottom=0;rounded=0;shadow=0;strokeWidth=1;" vertex="1" parent="WIyWlLk6GJQsqaUBKTNV-1">
          <mxGeometry x="2730" y="425" width="620" height="86" as="geometry">
            <mxRectangle x="230" y="140" width="160" height="26" as="alternateBounds" />
          </mxGeometry>
        </mxCell>
        <mxCell id="GNeBYBOIqmBqG0EEJqLA-150" value="" style="line;html=1;strokeWidth=1;align=left;verticalAlign=middle;spacingTop=-1;spacingLeft=3;spacingRight=3;rotatable=0;labelPosition=right;points=[];portConstraint=eastwest;" vertex="1" parent="GNeBYBOIqmBqG0EEJqLA-147">
          <mxGeometry y="26" width="620" height="8" as="geometry" />
        </mxCell>
        <mxCell id="GNeBYBOIqmBqG0EEJqLA-151" value="+ sendOrderFailedForArticlesLog(order: Order, orderArticle: OrderArticle, reason: Reason, correlationId: String)" style="text;align=left;verticalAlign=top;spacingLeft=4;spacingRight=4;overflow=hidden;rotatable=0;points=[[0,0.5],[1,0.5]];portConstraint=eastwest;fontStyle=4" vertex="1" parent="GNeBYBOIqmBqG0EEJqLA-147">
          <mxGeometry y="34" width="620" height="26" as="geometry" />
        </mxCell>
        <mxCell id="GNeBYBOIqmBqG0EEJqLA-156" value="+ sendOrderFailedForCustomerLog(order: Order, customerId: String, reason: Reason, correlationId: String)" style="text;align=left;verticalAlign=top;spacingLeft=4;spacingRight=4;overflow=hidden;rotatable=0;points=[[0,0.5],[1,0.5]];portConstraint=eastwest;fontStyle=4" vertex="1" parent="GNeBYBOIqmBqG0EEJqLA-147">
          <mxGeometry y="60" width="620" height="26" as="geometry" />
        </mxCell>
        <mxCell id="GNeBYBOIqmBqG0EEJqLA-158" value="&amp;lt;&amp;lt;creates&amp;gt;&amp;gt;" style="endArrow=block;endFill=1;html=1;edgeStyle=orthogonalEdgeStyle;align=left;verticalAlign=top;rounded=0;" edge="1" parent="WIyWlLk6GJQsqaUBKTNV-1" source="GNeBYBOIqmBqG0EEJqLA-147" target="GNeBYBOIqmBqG0EEJqLA-132">
          <mxGeometry x="0.7778" y="-5" relative="1" as="geometry">
            <mxPoint x="530" y="303" as="sourcePoint" />
            <mxPoint x="700" y="57" as="targetPoint" />
            <Array as="points">
              <mxPoint x="2710" y="448" />
              <mxPoint x="2710" y="448" />
            </Array>
            <mxPoint as="offset" />
          </mxGeometry>
        </mxCell>
        <mxCell id="GNeBYBOIqmBqG0EEJqLA-159" value="ch.hslu.swda.g06.order.listener" style="rounded=0;whiteSpace=wrap;html=1;align=left;verticalAlign=top;" vertex="1" parent="WIyWlLk6GJQsqaUBKTNV-1">
          <mxGeometry y="1110" width="760" height="1340" as="geometry" />
        </mxCell>
        <mxCell id="GNeBYBOIqmBqG0EEJqLA-160" value="CreateOrderMessageReceiver" style="swimlane;fontStyle=0;align=center;verticalAlign=top;childLayout=stackLayout;horizontal=1;startSize=26;horizontalStack=0;resizeParent=1;resizeLast=0;collapsible=1;marginBottom=0;rounded=0;shadow=0;strokeWidth=1;" vertex="1" parent="WIyWlLk6GJQsqaUBKTNV-1">
          <mxGeometry x="70" y="1220" width="540" height="190" as="geometry">
            <mxRectangle x="230" y="140" width="160" height="26" as="alternateBounds" />
          </mxGeometry>
        </mxCell>
        <mxCell id="GNeBYBOIqmBqG0EEJqLA-161" value="- GSON: Gson" style="text;align=left;verticalAlign=top;spacingLeft=4;spacingRight=4;overflow=hidden;rotatable=0;points=[[0,0.5],[1,0.5]];portConstraint=eastwest;fontStyle=4" vertex="1" parent="GNeBYBOIqmBqG0EEJqLA-160">
          <mxGeometry y="26" width="540" height="26" as="geometry" />
        </mxCell>
        <mxCell id="GNeBYBOIqmBqG0EEJqLA-162" value="- orderRepository: IOrderRepository" style="text;align=left;verticalAlign=top;spacingLeft=4;spacingRight=4;overflow=hidden;rotatable=0;points=[[0,0.5],[1,0.5]];portConstraint=eastwest;" vertex="1" parent="GNeBYBOIqmBqG0EEJqLA-160">
          <mxGeometry y="52" width="540" height="26" as="geometry" />
        </mxCell>
        <mxCell id="GNeBYBOIqmBqG0EEJqLA-167" value="- amqpTemplate: AmqpTemplate" style="text;align=left;verticalAlign=top;spacingLeft=4;spacingRight=4;overflow=hidden;rotatable=0;points=[[0,0.5],[1,0.5]];portConstraint=eastwest;" vertex="1" parent="GNeBYBOIqmBqG0EEJqLA-160">
          <mxGeometry y="78" width="540" height="26" as="geometry" />
        </mxCell>
        <mxCell id="GNeBYBOIqmBqG0EEJqLA-163" value="" style="line;html=1;strokeWidth=1;align=left;verticalAlign=middle;spacingTop=-1;spacingLeft=3;spacingRight=3;rotatable=0;labelPosition=right;points=[];portConstraint=eastwest;" vertex="1" parent="GNeBYBOIqmBqG0EEJqLA-160">
          <mxGeometry y="104" width="540" height="8" as="geometry" />
        </mxCell>
        <mxCell id="GNeBYBOIqmBqG0EEJqLA-164" value="+ createOrder(message: Message): void" style="text;align=left;verticalAlign=top;spacingLeft=4;spacingRight=4;overflow=hidden;rotatable=0;points=[[0,0.5],[1,0.5]];portConstraint=eastwest;" vertex="1" parent="GNeBYBOIqmBqG0EEJqLA-160">
          <mxGeometry y="112" width="540" height="26" as="geometry" />
        </mxCell>
        <mxCell id="GNeBYBOIqmBqG0EEJqLA-165" value="- sendVerifyArticlesMessage(correlationId: String, articles: List&lt;OrderArticle&gt;, orderId: String): void" style="text;align=left;verticalAlign=top;spacingLeft=4;spacingRight=4;overflow=hidden;rotatable=0;points=[[0,0.5],[1,0.5]];portConstraint=eastwest;" vertex="1" parent="GNeBYBOIqmBqG0EEJqLA-160">
          <mxGeometry y="138" width="540" height="26" as="geometry" />
        </mxCell>
        <mxCell id="GNeBYBOIqmBqG0EEJqLA-166" value="- sendVerifyUserMessage(correlationId: String, userId: String, orderId: String): void" style="text;align=left;verticalAlign=top;spacingLeft=4;spacingRight=4;overflow=hidden;rotatable=0;points=[[0,0.5],[1,0.5]];portConstraint=eastwest;" vertex="1" parent="GNeBYBOIqmBqG0EEJqLA-160">
          <mxGeometry y="164" width="540" height="26" as="geometry" />
        </mxCell>
        <mxCell id="GNeBYBOIqmBqG0EEJqLA-168" value="" style="endArrow=none;html=1;edgeStyle=orthogonalEdgeStyle;rounded=0;exitX=1;exitY=0.5;exitDx=0;exitDy=0;" edge="1" parent="WIyWlLk6GJQsqaUBKTNV-1" source="GNeBYBOIqmBqG0EEJqLA-167" target="GNeBYBOIqmBqG0EEJqLA-106">
          <mxGeometry relative="1" as="geometry">
            <mxPoint x="610" y="670" as="sourcePoint" />
            <mxPoint x="750" y="798" as="targetPoint" />
            <Array as="points">
              <mxPoint x="1150" y="1311" />
              <mxPoint x="1150" y="1405" />
            </Array>
          </mxGeometry>
        </mxCell>
        <mxCell id="GNeBYBOIqmBqG0EEJqLA-169" value="1" style="edgeLabel;resizable=0;html=1;align=left;verticalAlign=bottom;" connectable="0" vertex="1" parent="GNeBYBOIqmBqG0EEJqLA-168">
          <mxGeometry x="-1" relative="1" as="geometry" />
        </mxCell>
        <mxCell id="GNeBYBOIqmBqG0EEJqLA-170" value="1" style="edgeLabel;resizable=0;html=1;align=right;verticalAlign=bottom;" connectable="0" vertex="1" parent="GNeBYBOIqmBqG0EEJqLA-168">
          <mxGeometry x="1" relative="1" as="geometry">
            <mxPoint x="-10" as="offset" />
          </mxGeometry>
        </mxCell>
        <mxCell id="GNeBYBOIqmBqG0EEJqLA-171" value="GetOrderMessageReceiver" style="swimlane;fontStyle=0;align=center;verticalAlign=top;childLayout=stackLayout;horizontal=1;startSize=26;horizontalStack=0;resizeParent=1;resizeLast=0;collapsible=1;marginBottom=0;rounded=0;shadow=0;strokeWidth=1;" vertex="1" parent="WIyWlLk6GJQsqaUBKTNV-1">
          <mxGeometry x="67.5" y="1460" width="540" height="180" as="geometry">
            <mxRectangle x="230" y="140" width="160" height="26" as="alternateBounds" />
          </mxGeometry>
        </mxCell>
        <mxCell id="GNeBYBOIqmBqG0EEJqLA-172" value="- GSON: Gson" style="text;align=left;verticalAlign=top;spacingLeft=4;spacingRight=4;overflow=hidden;rotatable=0;points=[[0,0.5],[1,0.5]];portConstraint=eastwest;fontStyle=4" vertex="1" parent="GNeBYBOIqmBqG0EEJqLA-171">
          <mxGeometry y="26" width="540" height="26" as="geometry" />
        </mxCell>
        <mxCell id="GNeBYBOIqmBqG0EEJqLA-173" value="- orderRepository: IOrderRepository" style="text;align=left;verticalAlign=top;spacingLeft=4;spacingRight=4;overflow=hidden;rotatable=0;points=[[0,0.5],[1,0.5]];portConstraint=eastwest;" vertex="1" parent="GNeBYBOIqmBqG0EEJqLA-171">
          <mxGeometry y="52" width="540" height="26" as="geometry" />
        </mxCell>
        <mxCell id="GNeBYBOIqmBqG0EEJqLA-174" value="- amqpTemplate: AmqpTemplate" style="text;align=left;verticalAlign=top;spacingLeft=4;spacingRight=4;overflow=hidden;rotatable=0;points=[[0,0.5],[1,0.5]];portConstraint=eastwest;" vertex="1" parent="GNeBYBOIqmBqG0EEJqLA-171">
          <mxGeometry y="78" width="540" height="26" as="geometry" />
        </mxCell>
        <mxCell id="GNeBYBOIqmBqG0EEJqLA-175" value="" style="line;html=1;strokeWidth=1;align=left;verticalAlign=middle;spacingTop=-1;spacingLeft=3;spacingRight=3;rotatable=0;labelPosition=right;points=[];portConstraint=eastwest;" vertex="1" parent="GNeBYBOIqmBqG0EEJqLA-171">
          <mxGeometry y="104" width="540" height="8" as="geometry" />
        </mxCell>
        <mxCell id="GNeBYBOIqmBqG0EEJqLA-176" value="+ getOrder(message: Message): void" style="text;align=left;verticalAlign=top;spacingLeft=4;spacingRight=4;overflow=hidden;rotatable=0;points=[[0,0.5],[1,0.5]];portConstraint=eastwest;" vertex="1" parent="GNeBYBOIqmBqG0EEJqLA-171">
          <mxGeometry y="112" width="540" height="26" as="geometry" />
        </mxCell>
        <mxCell id="GNeBYBOIqmBqG0EEJqLA-177" value="+ getAllOrders(message: Message): void" style="text;align=left;verticalAlign=top;spacingLeft=4;spacingRight=4;overflow=hidden;rotatable=0;points=[[0,0.5],[1,0.5]];portConstraint=eastwest;" vertex="1" parent="GNeBYBOIqmBqG0EEJqLA-171">
          <mxGeometry y="138" width="540" height="26" as="geometry" />
        </mxCell>
        <mxCell id="GNeBYBOIqmBqG0EEJqLA-179" value="" style="endArrow=none;html=1;edgeStyle=orthogonalEdgeStyle;rounded=0;" edge="1" parent="WIyWlLk6GJQsqaUBKTNV-1" source="GNeBYBOIqmBqG0EEJqLA-171" target="GNeBYBOIqmBqG0EEJqLA-106">
          <mxGeometry relative="1" as="geometry">
            <mxPoint x="620" y="1321" as="sourcePoint" />
            <mxPoint x="1860" y="1415" as="targetPoint" />
            <Array as="points">
              <mxPoint x="1150" y="1550" />
              <mxPoint x="1150" y="1405" />
            </Array>
          </mxGeometry>
        </mxCell>
        <mxCell id="GNeBYBOIqmBqG0EEJqLA-180" value="1" style="edgeLabel;resizable=0;html=1;align=left;verticalAlign=bottom;" connectable="0" vertex="1" parent="GNeBYBOIqmBqG0EEJqLA-179">
          <mxGeometry x="-1" relative="1" as="geometry" />
        </mxCell>
        <mxCell id="GNeBYBOIqmBqG0EEJqLA-181" value="1" style="edgeLabel;resizable=0;html=1;align=right;verticalAlign=bottom;" connectable="0" vertex="1" parent="GNeBYBOIqmBqG0EEJqLA-179">
          <mxGeometry x="1" relative="1" as="geometry">
            <mxPoint x="-10" as="offset" />
          </mxGeometry>
        </mxCell>
        <mxCell id="GNeBYBOIqmBqG0EEJqLA-182" value="AnnulateOrderMessageReceiver" style="swimlane;fontStyle=0;align=center;verticalAlign=top;childLayout=stackLayout;horizontal=1;startSize=26;horizontalStack=0;resizeParent=1;resizeLast=0;collapsible=1;marginBottom=0;rounded=0;shadow=0;strokeWidth=1;" vertex="1" parent="WIyWlLk6GJQsqaUBKTNV-1">
          <mxGeometry x="60" y="1680" width="540" height="180" as="geometry">
            <mxRectangle x="230" y="140" width="160" height="26" as="alternateBounds" />
          </mxGeometry>
        </mxCell>
        <mxCell id="GNeBYBOIqmBqG0EEJqLA-183" value="- GSON: Gson" style="text;align=left;verticalAlign=top;spacingLeft=4;spacingRight=4;overflow=hidden;rotatable=0;points=[[0,0.5],[1,0.5]];portConstraint=eastwest;fontStyle=4" vertex="1" parent="GNeBYBOIqmBqG0EEJqLA-182">
          <mxGeometry y="26" width="540" height="26" as="geometry" />
        </mxCell>
        <mxCell id="GNeBYBOIqmBqG0EEJqLA-184" value="- orderRepository: IOrderRepository" style="text;align=left;verticalAlign=top;spacingLeft=4;spacingRight=4;overflow=hidden;rotatable=0;points=[[0,0.5],[1,0.5]];portConstraint=eastwest;" vertex="1" parent="GNeBYBOIqmBqG0EEJqLA-182">
          <mxGeometry y="52" width="540" height="26" as="geometry" />
        </mxCell>
        <mxCell id="GNeBYBOIqmBqG0EEJqLA-185" value="- amqpTemplate: AmqpTemplate" style="text;align=left;verticalAlign=top;spacingLeft=4;spacingRight=4;overflow=hidden;rotatable=0;points=[[0,0.5],[1,0.5]];portConstraint=eastwest;" vertex="1" parent="GNeBYBOIqmBqG0EEJqLA-182">
          <mxGeometry y="78" width="540" height="26" as="geometry" />
        </mxCell>
        <mxCell id="GNeBYBOIqmBqG0EEJqLA-186" value="" style="line;html=1;strokeWidth=1;align=left;verticalAlign=middle;spacingTop=-1;spacingLeft=3;spacingRight=3;rotatable=0;labelPosition=right;points=[];portConstraint=eastwest;" vertex="1" parent="GNeBYBOIqmBqG0EEJqLA-182">
          <mxGeometry y="104" width="540" height="8" as="geometry" />
        </mxCell>
        <mxCell id="GNeBYBOIqmBqG0EEJqLA-187" value="+ annulateOrder(message: Message): void" style="text;align=left;verticalAlign=top;spacingLeft=4;spacingRight=4;overflow=hidden;rotatable=0;points=[[0,0.5],[1,0.5]];portConstraint=eastwest;" vertex="1" parent="GNeBYBOIqmBqG0EEJqLA-182">
          <mxGeometry y="112" width="540" height="26" as="geometry" />
        </mxCell>
        <mxCell id="GNeBYBOIqmBqG0EEJqLA-188" value="- sendOrderDeletedMessage(correlationId: String, articles: List&lt;OrderArticle&gt;): void" style="text;align=left;verticalAlign=top;spacingLeft=4;spacingRight=4;overflow=hidden;rotatable=0;points=[[0,0.5],[1,0.5]];portConstraint=eastwest;" vertex="1" parent="GNeBYBOIqmBqG0EEJqLA-182">
          <mxGeometry y="138" width="540" height="26" as="geometry" />
        </mxCell>
        <mxCell id="GNeBYBOIqmBqG0EEJqLA-189" value="" style="endArrow=none;html=1;edgeStyle=orthogonalEdgeStyle;rounded=0;" edge="1" parent="WIyWlLk6GJQsqaUBKTNV-1" source="GNeBYBOIqmBqG0EEJqLA-182" target="GNeBYBOIqmBqG0EEJqLA-106">
          <mxGeometry relative="1" as="geometry">
            <mxPoint x="618" y="1560" as="sourcePoint" />
            <mxPoint x="1570" y="1415" as="targetPoint" />
            <Array as="points">
              <mxPoint x="1150" y="1770" />
              <mxPoint x="1150" y="1405" />
            </Array>
          </mxGeometry>
        </mxCell>
        <mxCell id="GNeBYBOIqmBqG0EEJqLA-190" value="1" style="edgeLabel;resizable=0;html=1;align=left;verticalAlign=bottom;" connectable="0" vertex="1" parent="GNeBYBOIqmBqG0EEJqLA-189">
          <mxGeometry x="-1" relative="1" as="geometry" />
        </mxCell>
        <mxCell id="GNeBYBOIqmBqG0EEJqLA-191" value="1" style="edgeLabel;resizable=0;html=1;align=right;verticalAlign=bottom;" connectable="0" vertex="1" parent="GNeBYBOIqmBqG0EEJqLA-189">
          <mxGeometry x="1" relative="1" as="geometry">
            <mxPoint x="-10" as="offset" />
          </mxGeometry>
        </mxCell>
        <mxCell id="GNeBYBOIqmBqG0EEJqLA-192" value="VerifiedPropertyMessageReceiver" style="swimlane;fontStyle=0;align=center;verticalAlign=top;childLayout=stackLayout;horizontal=1;startSize=26;horizontalStack=0;resizeParent=1;resizeLast=0;collapsible=1;marginBottom=0;rounded=0;shadow=0;strokeWidth=1;" vertex="1" parent="WIyWlLk6GJQsqaUBKTNV-1">
          <mxGeometry x="60" y="1920" width="540" height="216" as="geometry">
            <mxRectangle x="230" y="140" width="160" height="26" as="alternateBounds" />
          </mxGeometry>
        </mxCell>
        <mxCell id="GNeBYBOIqmBqG0EEJqLA-193" value="- GSON: Gson" style="text;align=left;verticalAlign=top;spacingLeft=4;spacingRight=4;overflow=hidden;rotatable=0;points=[[0,0.5],[1,0.5]];portConstraint=eastwest;fontStyle=4" vertex="1" parent="GNeBYBOIqmBqG0EEJqLA-192">
          <mxGeometry y="26" width="540" height="26" as="geometry" />
        </mxCell>
        <mxCell id="GNeBYBOIqmBqG0EEJqLA-194" value="- orderRepository: IOrderRepository" style="text;align=left;verticalAlign=top;spacingLeft=4;spacingRight=4;overflow=hidden;rotatable=0;points=[[0,0.5],[1,0.5]];portConstraint=eastwest;" vertex="1" parent="GNeBYBOIqmBqG0EEJqLA-192">
          <mxGeometry y="52" width="540" height="26" as="geometry" />
        </mxCell>
        <mxCell id="GNeBYBOIqmBqG0EEJqLA-195" value="- amqpTemplate: AmqpTemplate" style="text;align=left;verticalAlign=top;spacingLeft=4;spacingRight=4;overflow=hidden;rotatable=0;points=[[0,0.5],[1,0.5]];portConstraint=eastwest;" vertex="1" parent="GNeBYBOIqmBqG0EEJqLA-192">
          <mxGeometry y="78" width="540" height="26" as="geometry" />
        </mxCell>
        <mxCell id="GNeBYBOIqmBqG0EEJqLA-196" value="" style="line;html=1;strokeWidth=1;align=left;verticalAlign=middle;spacingTop=-1;spacingLeft=3;spacingRight=3;rotatable=0;labelPosition=right;points=[];portConstraint=eastwest;" vertex="1" parent="GNeBYBOIqmBqG0EEJqLA-192">
          <mxGeometry y="104" width="540" height="8" as="geometry" />
        </mxCell>
        <mxCell id="GNeBYBOIqmBqG0EEJqLA-197" value="+ verifyCustomer(message: Message): void" style="text;align=left;verticalAlign=top;spacingLeft=4;spacingRight=4;overflow=hidden;rotatable=0;points=[[0,0.5],[1,0.5]];portConstraint=eastwest;" vertex="1" parent="GNeBYBOIqmBqG0EEJqLA-192">
          <mxGeometry y="112" width="540" height="26" as="geometry" />
        </mxCell>
        <mxCell id="GNeBYBOIqmBqG0EEJqLA-199" value="+ verifyArticleId(message: Message): void" style="text;align=left;verticalAlign=top;spacingLeft=4;spacingRight=4;overflow=hidden;rotatable=0;points=[[0,0.5],[1,0.5]];portConstraint=eastwest;" vertex="1" parent="GNeBYBOIqmBqG0EEJqLA-192">
          <mxGeometry y="138" width="540" height="26" as="geometry" />
        </mxCell>
        <mxCell id="GNeBYBOIqmBqG0EEJqLA-200" value="- sendOrderConfirmationMessage(order: Order): void" style="text;align=left;verticalAlign=top;spacingLeft=4;spacingRight=4;overflow=hidden;rotatable=0;points=[[0,0.5],[1,0.5]];portConstraint=eastwest;" vertex="1" parent="GNeBYBOIqmBqG0EEJqLA-192">
          <mxGeometry y="164" width="540" height="26" as="geometry" />
        </mxCell>
        <mxCell id="GNeBYBOIqmBqG0EEJqLA-201" value="- sendOrderBillMessage(order: Order): void" style="text;align=left;verticalAlign=top;spacingLeft=4;spacingRight=4;overflow=hidden;rotatable=0;points=[[0,0.5],[1,0.5]];portConstraint=eastwest;" vertex="1" parent="GNeBYBOIqmBqG0EEJqLA-192">
          <mxGeometry y="190" width="540" height="26" as="geometry" />
        </mxCell>
        <mxCell id="GNeBYBOIqmBqG0EEJqLA-209" value="" style="endArrow=none;html=1;edgeStyle=orthogonalEdgeStyle;rounded=0;" edge="1" parent="WIyWlLk6GJQsqaUBKTNV-1" source="GNeBYBOIqmBqG0EEJqLA-192" target="GNeBYBOIqmBqG0EEJqLA-106">
          <mxGeometry relative="1" as="geometry">
            <mxPoint x="610" y="1780" as="sourcePoint" />
            <mxPoint x="1570" y="1415" as="targetPoint" />
            <Array as="points">
              <mxPoint x="1150" y="2010" />
              <mxPoint x="1150" y="1405" />
            </Array>
          </mxGeometry>
        </mxCell>
        <mxCell id="GNeBYBOIqmBqG0EEJqLA-210" value="1" style="edgeLabel;resizable=0;html=1;align=left;verticalAlign=bottom;" connectable="0" vertex="1" parent="GNeBYBOIqmBqG0EEJqLA-209">
          <mxGeometry x="-1" relative="1" as="geometry" />
        </mxCell>
        <mxCell id="GNeBYBOIqmBqG0EEJqLA-211" value="1" style="edgeLabel;resizable=0;html=1;align=right;verticalAlign=bottom;" connectable="0" vertex="1" parent="GNeBYBOIqmBqG0EEJqLA-209">
          <mxGeometry x="1" relative="1" as="geometry">
            <mxPoint x="-10" as="offset" />
          </mxGeometry>
        </mxCell>
        <mxCell id="GNeBYBOIqmBqG0EEJqLA-212" value="MessageReceiverUtils" style="swimlane;fontStyle=0;align=center;verticalAlign=top;childLayout=stackLayout;horizontal=1;startSize=26;horizontalStack=0;resizeParent=1;resizeLast=0;collapsible=1;marginBottom=0;rounded=0;shadow=0;strokeWidth=1;" vertex="1" parent="WIyWlLk6GJQsqaUBKTNV-1">
          <mxGeometry x="60" y="2190" width="540" height="180" as="geometry">
            <mxRectangle x="230" y="140" width="160" height="26" as="alternateBounds" />
          </mxGeometry>
        </mxCell>
        <mxCell id="GNeBYBOIqmBqG0EEJqLA-216" value="" style="line;html=1;strokeWidth=1;align=left;verticalAlign=middle;spacingTop=-1;spacingLeft=3;spacingRight=3;rotatable=0;labelPosition=right;points=[];portConstraint=eastwest;" vertex="1" parent="GNeBYBOIqmBqG0EEJqLA-212">
          <mxGeometry y="26" width="540" height="8" as="geometry" />
        </mxCell>
        <mxCell id="GNeBYBOIqmBqG0EEJqLA-217" value="+ sendOrderResponse(order: Order, properties: MessageProperties): void" style="text;align=left;verticalAlign=top;spacingLeft=4;spacingRight=4;overflow=hidden;rotatable=0;points=[[0,0.5],[1,0.5]];portConstraint=eastwest;fontStyle=4" vertex="1" parent="GNeBYBOIqmBqG0EEJqLA-212">
          <mxGeometry y="34" width="540" height="26" as="geometry" />
        </mxCell>
        <mxCell id="GNeBYBOIqmBqG0EEJqLA-221" value="+ sendOrdersResponse(orders: List&lt;Order&gt;, properties: MessageProperties): void" style="text;align=left;verticalAlign=top;spacingLeft=4;spacingRight=4;overflow=hidden;rotatable=0;points=[[0,0.5],[1,0.5]];portConstraint=eastwest;fontStyle=4" vertex="1" parent="GNeBYBOIqmBqG0EEJqLA-212">
          <mxGeometry y="60" width="540" height="26" as="geometry" />
        </mxCell>
        <mxCell id="GNeBYBOIqmBqG0EEJqLA-222" value="+ sendMessage(messageBody: Object, properties: MessageProperties, queueName: String): void" style="text;align=left;verticalAlign=top;spacingLeft=4;spacingRight=4;overflow=hidden;rotatable=0;points=[[0,0.5],[1,0.5]];portConstraint=eastwest;fontStyle=4" vertex="1" parent="GNeBYBOIqmBqG0EEJqLA-212">
          <mxGeometry y="86" width="540" height="26" as="geometry" />
        </mxCell>
        <mxCell id="GNeBYBOIqmBqG0EEJqLA-224" value="+ sendDeleteResponse(isDeleted: boolean, properties: MessageProperties): void" style="text;align=left;verticalAlign=top;spacingLeft=4;spacingRight=4;overflow=hidden;rotatable=0;points=[[0,0.5],[1,0.5]];portConstraint=eastwest;fontStyle=4" vertex="1" parent="GNeBYBOIqmBqG0EEJqLA-212">
          <mxGeometry y="112" width="540" height="26" as="geometry" />
        </mxCell>
        <mxCell id="GNeBYBOIqmBqG0EEJqLA-223" value="- createReturnMessageProperties(properties: MessageProperties): MessageProperties" style="text;align=left;verticalAlign=top;spacingLeft=4;spacingRight=4;overflow=hidden;rotatable=0;points=[[0,0.5],[1,0.5]];portConstraint=eastwest;fontStyle=4" vertex="1" parent="GNeBYBOIqmBqG0EEJqLA-212">
          <mxGeometry y="138" width="540" height="26" as="geometry" />
        </mxCell>
      </root>
    </mxGraphModel>
  </diagram>
</mxfile>
